<?xml version="1.0" encoding="utf-8"?>
<!-- Svg Vector Icons : http://www.onlinewebfonts.com/icon -->
<!DOCTYPE svg PUBLIC "-//W3C//DTD SVG 1.1//EN" "http://www.w3.org/Graphics/SVG/1.1/DTD/svg11.dtd">
<svg version="1.1" xmlns="http://www.w3.org/2000/svg" xmlns:xlink="http://www.w3.org/1999/xlink" x="0px" y="0px" viewBox="0 0 1000 1000" enable-background="new 0 0 1000 1000" xml:space="preserve">
<metadata> Svg Vector Icons : http://www.onlinewebfonts.com/icon </metadata>
<g><path d="M500,990C229.4,990,10,770.6,10,500C10,229.4,229.4,10,500,10s490,219.4,490,490C990,770.6,770.6,990,500,990z M500,108c-216.5,0-392,175.5-392,392c0,216.5,175.5,392,392,392c216.5,0,392-175.5,392-392C892,283.5,716.5,108,500,108z M719.5,430.4c0-31.3-24-55.8-67.1-55.8c-37.7,0-60.2,19.6-60.2,46c0,69.1,179.7,41.2,179.7,150.3c0,57.3-41.6,101.9-115.6,101.9c-77.4,0-122.9-39.6-122.9-95.5v-17.6h53.4v7.4c0,42.1,32.3,59.2,73,59.2c38.7,0,57.3-21.6,57.3-49.5c0-72.5-179.2-42.1-179.2-151.8c0-52.4,42.6-96.9,115.1-96.9c73.9,0,120,43.1,120,95.5v14.2h-53.4V430.4z M369.2,672.8c-74.9,0-119.5-50.4-119.5-113.6V441.6c0-63.7,44.5-113.6,119.5-113.6c74.9,0,119,49.9,119,113.6v117.6C488.2,622.4,444.1,672.8,369.2,672.8z M436.7,439.7c0-35.2-22.5-65.6-67.6-65.6c-45,0-67.6,30.4-67.6,65.6v121.5c0,34.7,22.5,65.1,67.6,65.1c45.1,0,67.6-30.4,67.6-65.1V439.7z"/></g>
</svg>